<svg id="Layer_1" data-name="Layer 1" xmlns="http://www.w3.org/2000/svg" viewBox="0 0 605.04 195.44"><defs><style>.cls-1{fill:#fff;}.cls-2{fill:#3d4148;}.cls-3{fill:#b2b5bc;}.cls-4{fill:#cb4645;}.cls-5{fill:#f2c157;}.cls-6{fill:#eeede7;}.cls-7{fill:#438ac9;}.cls-8{fill:#c2c4ca;}</style></defs><title>logo</title><path class="cls-1" d="M306.46,200.22a97.89,97.89,0,0,1-39.74-8.38c-13.66-6-29.67-9.45-47.57-10.17-18.82-.76-37.38-1.36-55.16-1.78l-.78,0c-13.34.54-26,1.13-38.68,1.79-.75,0-1.5.05-2.23.05a41.86,41.86,0,0,1-40.58-30.41L80.18,146A42,42,0,0,1,45.6,116.48L44,111.15A42.19,42.19,0,0,1,8.79,82L5.26,70.73A25,25,0,0,1,6.4,52a24.44,24.44,0,0,1,20.21-13.6c16.7-1.27,35-2.5,55.82-3.76l6.89-.48c38.69-2.29,78.35-4,117.95-5,19.31-.51,36.69-4.79,51.67-12.71a102.53,102.53,0,0,1,95.05,0c15,7.91,32.34,12.19,51.65,12.7,39.59,1.06,79.25,2.75,117.86,5l6.65.4.07.07c21.23,1.28,39,2.47,56.08,3.77a24.55,24.55,0,0,1,18.56,10.76,24,24,0,0,1,3,20.8l-3.76,12a42.23,42.23,0,0,1-35.2,29.19l-1.62,5.34A42,42,0,0,1,532.74,146l-1.55,5.33a41.84,41.84,0,0,1-40.57,30.4c-.74,0-1.47,0-2.22-.05-12.72-.66-25.64-1.25-38.4-1.77l-1.65-.07c-17.66.44-36,1-54.57,1.79-17.91.72-33.92,4.15-47.58,10.18a97.88,97.88,0,0,1-39.73,8.38Z" transform="translate(-3.98 -4.78)"/><path class="cls-2" d="M306.46,191.72a89.68,89.68,0,0,1-36.3-7.66c-15.91-7-33.29-10.19-50.67-10.89-19-.77-37.64-1.37-55.64-1.79l-1,.05c-13.11.54-25.94,1.13-38.77,1.79-.6,0-1.2,0-1.79,0A33.42,33.42,0,0,1,89.89,149l-3.2-11h0A33.64,33.64,0,0,1,53.74,114l-3.34-11h-.89A33.87,33.87,0,0,1,16.9,79.42L13.37,68.18A16.66,16.66,0,0,1,14,55.82a16,16,0,0,1,13.24-8.9c16.68-1.27,35-2.5,55.69-3.75l7-.48c38.6-2.28,78-4,117.59-5,19.24-.51,38.4-4.7,55.41-13.69A94,94,0,0,1,350,24c17,9,36.17,13.17,55.4,13.68,39.59,1.06,79,2.74,117.59,5l6.65.4v.07c21.08,1.27,39,2.47,56,3.76a16.08,16.08,0,0,1,12.16,7,15.58,15.58,0,0,1,2,13.48l-3.76,12A33.89,33.89,0,0,1,563.41,103h-.89l-3.34,11A33.65,33.65,0,0,1,526.23,138h0L523,149a33.41,33.41,0,0,1-32.4,24.26c-.6,0-1.19,0-1.79,0q-19.24-1-38.49-1.77l-1.92-.08c-17.7.44-36.13,1-55,1.8-17.38.7-34.75,3.87-50.67,10.89a89.68,89.68,0,0,1-36.3,7.65Z" transform="translate(-3.98 -4.78)"/><path class="cls-3" d="M387.39,103.41c-1.16,43.65-37.39,78.11-80.93,78.12s-79.77-34.47-80.93-78.12,35.07-80,80.93-79.94S388.55,59.8,387.39,103.41Z" transform="translate(-3.98 -4.78)"/><path class="cls-2" d="M306.46,184.65c-45.15,0-82.86-36.42-84-81.15a79,79,0,0,1,22.76-57.63,84.68,84.68,0,0,1,61.26-25.52h0a84.67,84.67,0,0,1,61.26,25.52,79,79,0,0,1,22.76,57.63C389.31,148.23,351.61,184.63,306.46,184.65Zm0-158.06a78.5,78.5,0,0,0-56.8,23.63,72.86,72.86,0,0,0-21,53.11c1.1,41.39,36,75.07,77.81,75.09s76.71-33.7,77.81-75.09h0a72.86,72.86,0,0,0-21-53.11,78.5,78.5,0,0,0-56.8-23.63Z" transform="translate(-3.98 -4.78)"/><path class="cls-2" d="M283.48,42.65a50.51,50.51,0,0,1,45.93,0,117.53,117.53,0,0,0-23-2.4A116.33,116.33,0,0,0,283.48,42.65Z" transform="translate(-3.98 -4.78)"/><path class="cls-2" d="M490.62,166.2c-.47,0-.95,0-1.43,0q-19.28-1-38.57-1.77l-4.82-.2,3-5.95,1.92-.26a20.26,20.26,0,0,0,18.79-14.76l3.32-.32-3-.83A26.47,26.47,0,0,1,496.66,123h0q11.1.58,22.21,1.24l3.9.23L516.24,147A26.51,26.51,0,0,1,490.62,166.2Z" transform="translate(-3.98 -4.78)"/><path class="cls-4" d="M466.05,158.81q11.73.53,23.46,1.13a20.3,20.3,0,0,0,20.73-14.63l4.37-15.09q-9.14-.54-18.28-1h0a20.2,20.2,0,0,0-20.52,14.53l-.32,1.15A26.18,26.18,0,0,1,466.05,158.81Z" transform="translate(-3.98 -4.78)"/><path class="cls-2" d="M526.66,130.89c-.57,0-1.14,0-1.71-.05q-23.68-1.45-47.37-2.58l-3.9-.18,6.39-22.89c3.27-11.68,14.69-19.67,27.07-19q24.09,1.33,48.17,3l3.91.27L552.41,112A26.69,26.69,0,0,1,526.66,130.89Z" transform="translate(-3.98 -4.78)"/><path class="cls-5" d="M481.79,122.22q21.78,1.06,43.54,2.39a20.58,20.58,0,0,0,21.11-14.42l4.54-15q-22.08-1.5-44.18-2.72c-9.47-.46-18.23,5.55-20.72,14.43Z" transform="translate(-3.98 -4.78)"/><path class="cls-2" d="M122.3,166.2A26.51,26.51,0,0,1,96.68,147l-6.54-22.59,3.9-.23q11.11-.66,22.22-1.24a26.44,26.44,0,0,1,26.85,19.1l.32,1.17A20.25,20.25,0,0,0,162.22,158l1.92.09,2.68,6-4.53.36q-19.29.78-38.57,1.77C123.25,166.18,122.77,166.2,122.3,166.2Z" transform="translate(-3.98 -4.78)"/><path class="cls-4" d="M98.31,130.22l4.37,15.09a20.38,20.38,0,0,0,20.73,14.63q11.73-.61,23.46-1.13a26.18,26.18,0,0,1-9.45-13.92l-.32-1.14a20.16,20.16,0,0,0-20.51-14.54h0Q107.44,129.68,98.31,130.22Z" transform="translate(-3.98 -4.78)"/><path class="cls-2" d="M137.56,145.28c0-.14-.11-.26-.15-.4l-.32-1.14a19.11,19.11,0,0,0-1.88-4.36q-9.6.82-19.19,1.68Q126.81,143.14,137.56,145.28Z" transform="translate(-3.98 -4.78)"/><path class="cls-2" d="M86.25,130.89A26.68,26.68,0,0,1,60.51,112L53.7,89.46l3.91-.27q24.07-1.65,48.16-3a26.58,26.58,0,0,1,27.07,19l6.4,22.89-3.9.18q-23.69,1.13-47.37,2.58C87.39,130.87,86.82,130.89,86.25,130.89Z" transform="translate(-3.98 -4.78)"/><path class="cls-5" d="M61.93,95.14l4.54,15c2.73,9.08,11.36,14.9,21.11,14.42q21.77-1.33,43.54-2.39l-4.29-15.36C124.35,98,115.67,92,106.11,92.42Q84,93.65,61.93,95.14Z" transform="translate(-3.98 -4.78)"/><path class="cls-6" d="M90.51,52.85C117.29,51.3,122,78.22,122,78.2q9.36,32.91,18.45,65.86a23.54,23.54,0,0,0,23.67,17.14q71.34,1.7,142.36,6.27,71-4.56,142.36-6.27a23.53,23.53,0,0,0,23.67-17.14q9.08-33,18.45-65.86s4.69-26.9,31.46-25.35A3664.62,3664.62,0,0,0,90.51,52.85Z" transform="translate(-3.98 -4.78)"/><path class="cls-2" d="M563.41,95.93c-.66,0-1.33,0-2-.07-24.16-1.7-48.87-3.2-73.45-4.43L484,91.23l5.25-18.6c2.59-7.24,10.62-23.66,32.17-22.9,24.5,1.44,44.7,2.78,63.66,4.22h0A9,9,0,0,1,592,57.9,8.56,8.56,0,0,1,593,65.3l-3.77,12A26.87,26.87,0,0,1,563.41,95.93Z" transform="translate(-3.98 -4.78)"/><path class="cls-7" d="M492.16,85.4c23.33,1.19,46.75,2.62,69.67,4.24a20.74,20.74,0,0,0,21.49-14.21l3.77-12a2.33,2.33,0,0,0-.31-2,2.84,2.84,0,0,0-2.14-1.22c-18.92-1.44-39.09-2.78-63.46-4.21-16.53-.68-23.39,11.42-26,18.57Z" transform="translate(-3.98 -4.78)"/><path class="cls-2" d="M49.51,95.93A26.86,26.86,0,0,1,23.65,77.31l-3.77-12A8.55,8.55,0,0,1,21,57.9,9,9,0,0,1,27.79,54c19-1.45,39.8-2.82,63.57-4.22,21.57-.56,29.67,15.65,32.2,22.7l5.31,18.79-3.91.19c-24.58,1.24-49.29,2.73-73.44,4.43C50.85,95.91,50.18,95.93,49.51,95.93Z" transform="translate(-3.98 -4.78)"/><path class="cls-7" d="M92.65,56l-1,0C68,57.36,47.24,58.74,28.27,60.18a2.79,2.79,0,0,0-2.14,1.21,2.32,2.32,0,0,0-.31,2l3.78,12a20.79,20.79,0,0,0,21.49,14.2C74,88,97.42,86.6,120.76,85.4l-3.13-11.06C115.18,67.54,108.6,56,92.65,56Z" transform="translate(-3.98 -4.78)"/><path class="cls-2" d="M347.3,132.86l-9.75-.1q-.79-5.5-1.58-11l-11.9-.08q-.87,5.48-1.72,11l-8.88,0q5-30.25,10.13-60.48l14.39.1Q342.72,102.55,347.3,132.86Zm-22-19.38,9.37.06q-2.22-15.32-4.48-30.64Q327.76,98.19,325.34,113.48Z" transform="translate(-3.98 -4.78)"/><path class="cls-2" d="M361.93,72.53l-.71,46.68c0,2.19.4,3.72,1.3,4.6a5.81,5.81,0,0,0,7.31.12q1.39-1.27,1.45-4.56l.84-46.68,9.29.18-.95,46.07q-.15,7.35-3.88,11.21t-10.84,3.74q-7.12-.12-10.71-4.1t-3.51-11.33q.29-23,.58-46.08Z" transform="translate(-3.98 -4.78)"/><path class="cls-2" d="M385.25,73q15.19.33,30.38.78l-.26,8.64-10.25-.29-1.41,51.85L394,133.7l1.27-51.86-10.25-.24Z" transform="translate(-3.98 -4.78)"/><path class="cls-2" d="M418.66,88.37q.23-7.34,4.19-11.15t11.21-3.56q7.24.26,10.93,4.34t3.4,11.42l-1.23,31.45q-.29,7.34-4.22,11.13c-2.62,2.53-6.3,3.7-11,3.53s-8.33-1.59-10.76-4.3-3.59-6.5-3.43-11.39Zm8.71,32.37c-.07,2.19.33,3.74,1.21,4.67a5.67,5.67,0,0,0,7.31.26c.95-.86,1.45-2.39,1.53-4.57l1.19-32.66q.12-3.28-1.21-4.67A5.77,5.77,0,0,0,430,83.5q-1.43,1.3-1.54,4.57Z" transform="translate(-3.98 -4.78)"/><path class="cls-2" d="M493.82,66.82q31.63,2.21,63.21,5-31.69.36-63.33,1.27Z" transform="translate(-3.98 -4.78)"/><path class="cls-2" d="M524.14,107.14q-18.46-1.71-36.95-3.21a18.67,18.67,0,0,0-1.11,2.92l-.78,2.78Q504.7,108.29,524.14,107.14Z" transform="translate(-3.98 -4.78)"/><path class="cls-2" d="M477.66,139.44a19,19,0,0,0-1.84,4.29l-.31,1.14q9.91-2,19.84-3.9Q486.5,140.18,477.66,139.44Z" transform="translate(-3.98 -4.78)"/><path class="cls-2" d="M117.64,73.14Q86,72.24,54.31,71.89q31.58-2.77,63.21-5Z" transform="translate(-3.98 -4.78)"/><path class="cls-2" d="M127.67,109.82l-.83-3a18.9,18.9,0,0,0-1.13-3q-19.26,1.58-38.49,3.36Q107.46,108.41,127.67,109.82Z" transform="translate(-3.98 -4.78)"/><path class="cls-2" d="M174.64,101.31l13.66-.47.63,19.19q.24,7.34-3.28,11.4T175,135.73q-7.11.26-10.91-3.52T160,121.09l-1.28-31.45q-.3-7.34,3.24-11.42t10.79-4.35q7.24-.26,11.08,3.54t4.07,11.15l.19,5.88-9.24.31-.23-6.48q-.11-3.28-1.54-4.57a5.77,5.77,0,0,0-7.39.27q-1.33,1.4-1.2,4.67l1.24,32.66q.12,3.28,1.54,4.53a5.81,5.81,0,0,0,7.31-.27q1.32-1.34,1.2-4.63l-.39-11.15L175,110Z" transform="translate(-3.98 -4.78)"/><path class="cls-2" d="M226.82,133.51l-9.75.23-1.95-10.93-11.9.32q-.68,5.51-1.35,11l-8.87.27q4-30.4,8.09-60.79l14.38-.39Q221.23,103.37,226.82,133.51Zm-22.6-18.63,9.36-.25q-2.74-15.24-5.51-30.47Q206.13,99.52,204.23,114.89Z" transform="translate(-3.98 -4.78)"/><path class="cls-2" d="M251.51,133c-.12-.4-.24-.78-.37-1.12a9,9,0,0,1-.33-1.29,15.28,15.28,0,0,1-.2-2q-.06-1.21-.09-3l-.15-9.51q-.07-4.23-1.59-5.94c-1-1.14-2.65-1.69-4.89-1.65l-3.36.06q.23,12.32.45,24.64l-9.66.19L230,72.91q7.42-.15,14.83-.28,7.68-.13,11.17,3.29t3.57,10.41l.06,4.76q.12,9.33-6.22,12.36a8.58,8.58,0,0,1,5.16,4.73,21.15,21.15,0,0,1,1.48,8.06q.06,4.67.12,9.34a38.08,38.08,0,0,0,.22,3.93,12.6,12.6,0,0,0,.92,3.4ZM240,81.36l.34,18.58,3.82-.07a6.23,6.23,0,0,0,4.28-1.45c1-.94,1.51-2.62,1.47-5q0-3-.09-6-.05-3.29-1.28-4.74a4.62,4.62,0,0,0-3.81-1.41Z" transform="translate(-3.98 -4.78)"/><path class="cls-8" d="M312.34,134.4c-.13.77-.26,1.54-.39,2.31l8.87,0,.36-2.31Z" transform="translate(-3.98 -4.78)"/><path class="cls-8" d="M336,134.52l-1.58-11-8.86-.06-.36,2.31,9.22.06q.79,5.5,1.58,11l9.74.09c-.12-.77-.24-1.54-.36-2.31Z" transform="translate(-3.98 -4.78)"/><path class="cls-8" d="M366.16,135.67h-.46c-5.24-.09-9.27-1.66-12-4.68a15.42,15.42,0,0,1-3.52-7.72c.16,4.24,1.27,7.61,3.44,10q3.59,4,10.7,4.09t10.83-3.75c.08-.08.13-.18.2-.26A17.23,17.23,0,0,1,366.16,135.67Z" transform="translate(-3.98 -4.78)"/><path class="cls-8" d="M406.83,83.91l0,1.73,7.07.2.05-1.72Z" transform="translate(-3.98 -4.78)"/><path class="cls-8" d="M393.51,83.57l-9.89-.22,0,1.72,9.88.22Z" transform="translate(-3.98 -4.78)"/><path class="cls-8" d="M392.61,135.43l0,1.73,9.66.25,0-1.73Z" transform="translate(-3.98 -4.78)"/><path class="cls-8" d="M433.7,124.92a2.6,2.6,0,0,0,1-.56c.56-.51.9-1.69,1-3.33l1.19-32.66a5,5,0,0,0-.72-3.39,3.38,3.38,0,0,0-2.44-.92h-.19a3.26,3.26,0,0,0-2.31.75c-.07.07-.11.24-.17.32a4.84,4.84,0,0,1,2.81,1.3c.89.93,1.29,2.48,1.22,4.67l-1.16,32.66A10,10,0,0,1,433.7,124.92Z" transform="translate(-3.98 -4.78)"/><path class="cls-8" d="M432.75,137.3l-.93,0c-5.22-.18-9.27-1.82-12-4.88s-4-7.28-3.89-12.63l1-31.46a21.71,21.71,0,0,1,1.3-7.08,16.43,16.43,0,0,0-3.09,9.83q-.47,15.73-.94,31.46-.22,7.35,3.44,11.39t10.76,4.29a17.48,17.48,0,0,0,7.07-1.1A21.81,21.81,0,0,1,432.75,137.3Z" transform="translate(-3.98 -4.78)"/><path class="cls-8" d="M180.32,98.6l9.23-.31-.07-2.12-9.23.32Z" transform="translate(-3.98 -4.78)"/><path class="cls-8" d="M174.81,86.33a6.06,6.06,0,0,1,1.81.22,3.06,3.06,0,0,0-.74-1.55,3.26,3.26,0,0,0-2.28-.75,3.54,3.54,0,0,0-2.64.94,5,5,0,0,0-.72,3.38l0,.94a4.11,4.11,0,0,1,.89-1.72A5.07,5.07,0,0,1,174.81,86.33Z" transform="translate(-3.98 -4.78)"/><path class="cls-8" d="M176.35,111.67l.08,2.12,1.32,0-.07-2.12Z" transform="translate(-3.98 -4.78)"/><path class="cls-8" d="M187,132.58c-2.66,3.07-6.66,4.72-11.9,4.92l-1,0a16.37,16.37,0,0,1-9.43-2.6,11.84,11.84,0,0,0,.89,1.13q3.8,3.79,10.9,3.52c4.74-.17,8.27-1.6,10.62-4.31,2.18-2.52,3.23-6,3.25-10.44A15.41,15.41,0,0,1,187,132.58Z" transform="translate(-3.98 -4.78)"/><path class="cls-8" d="M213.65,124.62l-8.85.24-.29,2.32,9.55-.26Z" transform="translate(-3.98 -4.78)"/><path class="cls-8" d="M217.67,135.5l.41,2.3,9.74-.23c-.14-.77-.29-1.53-.43-2.3Z" transform="translate(-3.98 -4.78)"/><path class="cls-8" d="M194.34,136.15c-.1.77-.21,1.55-.31,2.32l8.86-.27.29-2.33Z" transform="translate(-3.98 -4.78)"/><path class="cls-8" d="M256.91,103.3a9.86,9.86,0,0,1,1.31,1.25,13.77,13.77,0,0,0,2.59-8.14A12.61,12.61,0,0,1,256.91,103.3Z" transform="translate(-3.98 -4.78)"/><path class="cls-8" d="M244.77,83l-3,.05,0,2.31,4.15-.07a6.16,6.16,0,0,1,1.87.28,4,4,0,0,0-.69-1.79c-.16-.19-.66-.78-2.3-.78Z" transform="translate(-3.98 -4.78)"/><path class="cls-8" d="M252.09,134.81a8.55,8.55,0,0,0,.3,1.18c.12.34.24.71.37,1.12l9.83-.13a12.59,12.59,0,0,1-.62-2.3Z" transform="translate(-3.98 -4.78)"/><path class="cls-8" d="M247.45,111.35a4.38,4.38,0,0,0-3.34-1.06l-1.8,0,0,2.31,2.78,0a8,8,0,0,1,3.1.51A4.25,4.25,0,0,0,247.45,111.35Z" transform="translate(-3.98 -4.78)"/><path class="cls-8" d="M232.53,135.16l0,2.31,9.65-.19,0-2.31Z" transform="translate(-3.98 -4.78)"/><path class="cls-8" d="M289,134.44l.36,2.31,9.74,0c-.13-.77-.26-1.54-.39-2.31Z" transform="translate(-3.98 -4.78)"/><path class="cls-8" d="M284.91,123.48l-8.85.06-1.56,10.88-1.53.13-7.3.08c-.12.77-.24,1.54-.36,2.31l8.87-.09q.78-5.5,1.57-11l9.53-.07Z" transform="translate(-3.98 -4.78)"/><path class="cls-2" d="M297.91,132.64l-9.75,0-1.73-11-11.9.09q-.79,5.5-1.57,11l-8.88.09q4.56-30.32,9.29-60.62l14.39-.1Q292.92,102.39,297.91,132.64Zm-22.22-19.07,9.37-.07q-2.43-15.29-4.9-30.57Q277.9,98.24,275.69,113.56Z" transform="translate(-3.98 -4.78)"/><path class="cls-2" d="M306.66,170.57c-47.43-3-95.28-5.13-142.64-6.26a26.6,26.6,0,0,1-26.6-19.42Q128.34,111.94,119,79c-.25-1.28-4.77-24.51-28.29-23.09l-.36-6.22h0a3675,3675,0,0,1,432.25,0L522.23,56h0c-18.94-1.07-25.48,13.46-27.47,19.87l.09,0-.91,3.2q-9.36,32.9-18.44,65.84a26.68,26.68,0,0,1-26.8,19.43C401.54,165.44,353.68,167.55,306.66,170.57ZM164,158.08c47.64,1.14,95.58,3.25,142.69,6.28,46.7-3,94.64-5.14,142.09-6.28a20.35,20.35,0,0,0,20.75-14.85q9.09-33,18.45-65.88c.45-3.91,4.24-15.63,14.45-22.5a3675.19,3675.19,0,0,0-391.75,0c11.52,7.85,14.25,21.95,14.4,22.79,6.18,21.66,12.33,43.62,18.38,65.59A20.12,20.12,0,0,0,164,158.08Z" transform="translate(-3.98 -4.78)"/></svg>